{
   "accessors" : [
      {
         "bufferView" : 2,
         "byteOffset" : 0,
         "componentType" : 5126,
         "count" : 7424,
         "max" : [ 1, 1, 1, 1 ],
         "min" : [ 0.05637409910559654, 0.05284162983298302, 0.0328759141266346, 1 ],
         "name" : "accessor_color_m0-PolyPaper15_-328806",
         "type" : "VEC4"
      },
      {
         "bufferView" : 2,
         "byteOffset" : 118784,
         "componentType" : 5126,
         "count" : 4719,
         "max" : [ 1, 1, 1, 1 ],
         "min" : [ 0.1904628723859787, 0.05284162983298302, 0.0328759141266346, 1 ],
         "name" : "accessor_color_m1-PolyPaper21_-328812",
         "type" : "VEC4"
      },
      {
         "bufferView" : 2,
         "byteOffset" : 194288,
         "componentType" : 5126,
         "count" : 11896,
         "max" : [ 1, 1, 1, 1 ],
         "min" : [ 0, 0.05284162983298302, 0, 1 ],
         "name" : "accessor_color_m2-PolyPaper21_-328818",
         "type" : "VEC4"
      },
      {
         "bufferView" : 2,
         "byteOffset" : 384624,
         "componentType" : 5126,
         "count" : 4944,
         "max" : [ 1, 1, 1, 1 ],
         "min" : [ 0.6320426464080811, 0.05284162983298302, 0.0328759141266346, 1 ],
         "name" : "accessor_color_m3-PolyPaper21_-328824",
         "type" : "VEC4"
      },
      {
         "bufferView" : 2,
         "byteOffset" : 463728,
         "componentType" : 5126,
         "count" : 24,
         "max" : [ 1, 1, 1, 1 ],
         "min" : [ 1, 1, 1, 1 ],
         "name" : "accessor_color_m4-PolyGlass24_-328830",
         "type" : "VEC4"
      },
      {
         "bufferView" : 2,
         "byteOffset" : 464112,
         "componentType" : 5126,
         "count" : 5448,
         "max" : [ 1, 1, 1, 1 ],
         "min" : [ 0.6320426464080811, 0.6940805315971375, 0.7226724624633789, 1 ],
         "name" : "accessor_color_m5-PolyPaper21_-328836",
         "type" : "VEC4"
      },
      {
         "bufferView" : 2,
         "byteOffset" : 551280,
         "componentType" : 5126,
         "count" : 5670,
         "max" : [ 1, 1, 1, 1 ],
         "min" : [ 0.006584956776350737, 0.006584956776350737, 0.006584956776350737, 1 ],
         "name" : "accessor_color_m6-PolyPaper21_-328842",
         "type" : "VEC4"
      },
      {
         "bufferView" : 2,
         "byteOffset" : 642000,
         "componentType" : 5126,
         "count" : 24,
         "max" : [ 1, 1, 1, 1 ],
         "min" : [ 1, 1, 1, 1 ],
         "name" : "accessor_color_m7-PolyGem25_-328848",
         "type" : "VEC4"
      },
      {
         "bufferView" : 2,
         "byteOffset" : 642384,
         "componentType" : 5126,
         "count" : 7428,
         "max" : [ 1, 1, 1, 1 ],
         "min" : [ 5.692175545846112e-05, 0.006584956776350737, 0.006584956776350737, 1 ],
         "name" : "accessor_color_m8-PolyPaper21_-328854",
         "type" : "VEC4"
      },
      {
         "bufferView" : 2,
         "byteOffset" : 761232,
         "componentType" : 5126,
         "count" : 2792,
         "max" : [ 1, 1, 1, 1 ],
         "min" : [ 5.692175545846112e-05, 0.05284162983298302, 0.0328759141266346, 1 ],
         "name" : "accessor_color_m9-PolyPaper22_-328860",
         "type" : "VEC4"
      },
      {
         "bufferView" : 0,
         "byteOffset" : 0,
         "componentType" : 5123,
         "count" : 12528,
         "max" : [ 7423 ],
         "min" : [ 0 ],
         "name" : "accessor_indices_0_m0-PolyPaper15_-328806",
         "type" : "SCALAR"
      },
      {
         "bufferView" : 0,
         "byteOffset" : 25056,
         "componentType" : 5123,
         "count" : 7065,
         "max" : [ 4718 ],
         "min" : [ 0 ],
         "name" : "accessor_indices_0_m1-PolyPaper21_-328812",
         "type" : "SCALAR"
      },
      {
         "bufferView" : 0,
         "byteOffset" : 39186,
         "componentType" : 5123,
         "count" : 17364,
         "max" : [ 11895 ],
         "min" : [ 0 ],
         "name" : "accessor_indices_0_m2-PolyPaper21_-328818",
         "type" : "SCALAR"
      },
      {
         "bufferView" : 0,
         "byteOffset" : 73914,
         "componentType" : 5123,
         "count" : 7416,
         "max" : [ 4943 ],
         "min" : [ 0 ],
         "name" : "accessor_indices_0_m3-PolyPaper21_-328824",
         "type" : "SCALAR"
      },
      {
         "bufferView" : 0,
         "byteOffset" : 88746,
         "componentType" : 5123,
         "count" : 36,
         "max" : [ 23 ],
         "min" : [ 0 ],
         "name" : "accessor_indices_0_m4-PolyGlass24_-328830",
         "type" : "SCALAR"
      },
      {
         "bufferView" : 0,
         "byteOffset" : 88818,
         "componentType" : 5123,
         "count" : 8532,
         "max" : [ 5447 ],
         "min" : [ 0 ],
         "name" : "accessor_indices_0_m5-PolyPaper21_-328836",
         "type" : "SCALAR"
      },
      {
         "bufferView" : 0,
         "byteOffset" : 105882,
         "componentType" : 5123,
         "count" : 9132,
         "max" : [ 5669 ],
         "min" : [ 0 ],
         "name" : "accessor_indices_0_m6-PolyPaper21_-328842",
         "type" : "SCALAR"
      },
      {
         "bufferView" : 0,
         "byteOffset" : 124146,
         "componentType" : 5123,
         "count" : 36,
         "max" : [ 23 ],
         "min" : [ 0 ],
         "name" : "accessor_indices_0_m7-PolyGem25_-328848",
         "type" : "SCALAR"
      },
      {
         "bufferView" : 0,
         "byteOffset" : 124218,
         "componentType" : 5123,
         "count" : 11796,
         "max" : [ 7427 ],
         "min" : [ 0 ],
         "name" : "accessor_indices_0_m8-PolyPaper21_-328854",
         "type" : "SCALAR"
      },
      {
         "bufferView" : 0,
         "byteOffset" : 147810,
         "componentType" : 5123,
         "count" : 4020,
         "max" : [ 2791 ],
         "min" : [ 0 ],
         "name" : "accessor_indices_0_m9-PolyPaper22_-328860",
         "type" : "SCALAR"
      },
      {
         "bufferView" : 1,
         "byteOffset" : 89088,
         "componentType" : 5126,
         "count" : 7424,
         "max" : [ 1, 1, 1 ],
         "min" : [ -1, -1, -1 ],
         "name" : "accessor_normal_m0-PolyPaper15_-328806",
         "type" : "VEC3"
      },
      {
         "bufferView" : 1,
         "byteOffset" : 234804,
         "componentType" : 5126,
         "count" : 4719,
         "max" : [ 1, 1, 1 ],
         "min" : [ -1, -1, -1 ],
         "name" : "accessor_normal_m1-PolyPaper21_-328812",
         "type" : "VEC3"
      },
      {
         "bufferView" : 1,
         "byteOffset" : 434184,
         "componentType" : 5126,
         "count" : 11896,
         "max" : [ 1, 1, 1 ],
         "min" : [ -1, -1, -1 ],
         "name" : "accessor_normal_m2-PolyPaper21_-328818",
         "type" : "VEC3"
      },
      {
         "bufferView" : 1,
         "byteOffset" : 636264,
         "componentType" : 5126,
         "count" : 4944,
         "max" : [ 1, 1, 1 ],
         "min" : [ -1, -1, -1 ],
         "name" : "accessor_normal_m3-PolyPaper21_-328824",
         "type" : "VEC3"
      },
      {
         "bufferView" : 1,
         "byteOffset" : 695880,
         "componentType" : 5126,
         "count" : 24,
         "max" : [ 1, 1, 1 ],
         "min" : [ -1, -1, -1 ],
         "name" : "accessor_normal_m4-PolyGlass24_-328830",
         "type" : "VEC3"
      },
      {
         "bufferView" : 1,
         "byteOffset" : 761544,
         "componentType" : 5126,
         "count" : 5448,
         "max" : [ 1, 1, 1 ],
         "min" : [ -1, -1, -1 ],
         "name" : "accessor_normal_m5-PolyPaper21_-328836",
         "type" : "VEC3"
      },
      {
         "bufferView" : 1,
         "byteOffset" : 894960,
         "componentType" : 5126,
         "count" : 5670,
         "max" : [ 1, 1, 1 ],
         "min" : [ -1, -1, -1 ],
         "name" : "accessor_normal_m6-PolyPaper21_-328842",
         "type" : "VEC3"
      },
      {
         "bufferView" : 1,
         "byteOffset" : 963288,
         "componentType" : 5126,
         "count" : 24,
         "max" : [ 1, 1, 1 ],
         "min" : [ -1, -1, -1 ],
         "name" : "accessor_normal_m7-PolyGem25_-328848",
         "type" : "VEC3"
      },
      {
         "bufferView" : 1,
         "byteOffset" : 1052712,
         "componentType" : 5126,
         "count" : 7428,
         "max" : [ 1, 1, 1 ],
         "min" : [ -1, -1, -1 ],
         "name" : "accessor_normal_m8-PolyPaper21_-328854",
         "type" : "VEC3"
      },
      {
         "bufferView" : 1,
         "byteOffset" : 1175352,
         "componentType" : 5126,
         "count" : 2792,
         "max" : [ 1, 1, 1 ],
         "min" : [ -1, -1, -1 ],
         "name" : "accessor_normal_m9-PolyPaper22_-328860",
         "type" : "VEC3"
      },
      {
         "bufferView" : 1,
         "byteOffset" : 0,
         "componentType" : 5126,
         "count" : 7424,
         "max" : [ 4.530062, 1.766074, 3.140033 ],
         "min" : [ -4.919941, -4.549993, -3.939973 ],
         "name" : "accessor_position_m0-PolyPaper15_-328806",
         "type" : "VEC3"
      },
      {
         "bufferView" : 1,
         "byteOffset" : 178176,
         "componentType" : 5126,
         "count" : 4719,
         "max" : [ 4.45006, -0.02999376, 3.190031 ],
         "min" : [ -4.659941, -4.429995, -4.349969 ],
         "name" : "accessor_position_m1-PolyPaper21_-328812",
         "type" : "VEC3"
      },
      {
         "bufferView" : 1,
         "byteOffset" : 291432,
         "componentType" : 5126,
         "count" : 11896,
         "max" : [ 2.597966, -1.208741, 1.373403 ],
         "min" : [ -1.615659, -4.461876, -1.514439 ],
         "name" : "accessor_position_m2-PolyPaper21_-328818",
         "type" : "VEC3"
      },
      {
         "bufferView" : 1,
         "byteOffset" : 576936,
         "componentType" : 5126,
         "count" : 4944,
         "max" : [ 3.454298, 0.2274027, 2.825445 ],
         "min" : [ -4.67165, -3.859993, -3.681324 ],
         "name" : "accessor_position_m3-PolyPaper21_-328824",
         "type" : "VEC3"
      },
      {
         "bufferView" : 1,
         "byteOffset" : 695592,
         "componentType" : 5126,
         "count" : 24,
         "max" : [ -1.055396, -3.862488, -0.05002253 ],
         "min" : [ -1.695397, -4.308488, -0.4500228 ],
         "name" : "accessor_position_m4-PolyGlass24_-328830",
         "type" : "VEC3"
      },
      {
         "bufferView" : 1,
         "byteOffset" : 696168,
         "componentType" : 5126,
         "count" : 5448,
         "max" : [ 4.690027, 2.639905, 3.279917 ],
         "min" : [ -4.889975, -4.370103, -4.450086 ],
         "name" : "accessor_position_m5-PolyPaper21_-328836",
         "type" : "VEC3"
      },
      {
         "bufferView" : 1,
         "byteOffset" : 826920,
         "componentType" : 5126,
         "count" : 5670,
         "max" : [ 3.690027, -0.1156194, 2.89302 ],
         "min" : [ -4.732778, -4.3601, -3.742078 ],
         "name" : "accessor_position_m6-PolyPaper21_-328842",
         "type" : "VEC3"
      },
      {
         "bufferView" : 1,
         "byteOffset" : 963000,
         "componentType" : 5126,
         "count" : 24,
         "max" : [ 0.1650268, -1.795096, 1.129915 ],
         "min" : [ 0.05502618, -1.805096, -1.690085 ],
         "name" : "accessor_position_m7-PolyGem25_-328848",
         "type" : "VEC3"
      },
      {
         "bufferView" : 1,
         "byteOffset" : 963576,
         "componentType" : 5126,
         "count" : 7428,
         "max" : [ 4.595054, 1.755004, 3.753344 ],
         "min" : [ -4.609946, -4.52004, -3.840003 ],
         "name" : "accessor_position_m8-PolyPaper21_-328854",
         "type" : "VEC3"
      },
      {
         "bufferView" : 1,
         "byteOffset" : 1141848,
         "componentType" : 5126,
         "count" : 2792,
         "max" : [ 4.406588, 2.489948, 2.670031 ],
         "min" : [ -4.619942, -4.380005, -3.960003 ],
         "name" : "accessor_position_m9-PolyPaper22_-328860",
         "type" : "VEC3"
      }
   ],
   "asset" : {
      "copyright" : "Unknown",
      "extras" : {
         "GOOGLE_processor_version" : 294144208
      },
      "generator" : "glTF 1-to-2 Upgrader for Google Blocks",
      "version" : "2.0"
   },
   "bufferViews" : [
      {
         "buffer" : 0,
         "byteLength" : 155850,
         "byteOffset" : 0,
         "name" : "ushortBufferView",
         "target" : 34963
      },
      {
         "buffer" : 0,
         "byteLength" : 1208856,
         "byteOffset" : 155850,
         "byteStride" : 12,
         "name" : "vec3BufferView",
         "target" : 34962
      },
      {
         "buffer" : 0,
         "byteLength" : 805904,
         "byteOffset" : 1364706,
         "byteStride" : 16,
         "name" : "vec4BufferView",
         "target" : 34962
      }
   ],
   "buffers" : [
      {
         "byteLength" : 2170610,
         "name" : "model",
         "uri" : "model.bin"
      }
   ],
   "cameras" : [
      {
         "perspective" : {
            "yfov" : 0.7853981633974483,
            "znear" : 0.1000000014901161
         },
         "type" : "perspective"
      }
   ],
   "extensions" : {
      "KHR_lights_punctual" : {
         "lights" : [
            {
               "color" : [ 1, 0.9333333333333333, 0.8666666666666667 ],
               "intensity" : 0.25,
               "name" : "headLight",
               "type" : "directional"
            },
            {
               "color" : [ 1, 0.9333333333333333, 0.8666666666666667 ],
               "intensity" : 0.324999988079071,
               "name" : "keyLight",
               "type" : "directional"
            }
         ]
      }
   },
   "extensionsUsed" : [ "GOOGLE_backgrounds", "GOOGLE_camera_settings", "KHR_lights_punctual" ],
   "extras" : {
      "GOOGLE_initial_camera_motion" : {
         "motionPath" : "NONE"
      },
      "GOOGLE_lighting_rig" : {
         "disableShadows" : false
      }
   },
   "materials" : [
      {
         "alphaMode" : "OPAQUE",
         "doubleSided" : false,
         "name" : "BlocksPaper",
         "pbrMetallicRoughness" : {
            "baseColorFactor" : [ 1, 1, 1, 1 ],
            "metallicFactor" : 0,
            "roughnessFactor" : 0.6
         }
      },
      {
         "alphaMode" : "BLEND",
         "doubleSided" : false,
         "name" : "BlocksGlass",
         "pbrMetallicRoughness" : {
            "baseColorFactor" : [ 0.2, 0.2, 1, 0.3 ],
            "metallicFactor" : 1,
            "roughnessFactor" : 0.4
         }
      },
      {
         "alphaMode" : "OPAQUE",
         "doubleSided" : true,
         "name" : "BlocksGem",
         "pbrMetallicRoughness" : {
            "baseColorFactor" : [ 1, 0.4, 1, 1 ],
            "metallicFactor" : 0,
            "roughnessFactor" : 0.1
         }
      }
   ],
   "meshes" : [
      {
         "name" : "mesh_m0-PolyPaper15_-328806",
         "primitives" : [
            {
               "attributes" : {
                  "COLOR_0" : 0,
                  "NORMAL" : 20,
                  "POSITION" : 30
               },
               "indices" : 10,
               "material" : 0,
               "mode" : 4
            }
         ]
      },
      {
         "name" : "mesh_m1-PolyPaper21_-328812",
         "primitives" : [
            {
               "attributes" : {
                  "COLOR_0" : 1,
                  "NORMAL" : 21,
                  "POSITION" : 31
               },
               "indices" : 11,
               "material" : 0,
               "mode" : 4
            }
         ]
      },
      {
         "name" : "mesh_m2-PolyPaper21_-328818",
         "primitives" : [
            {
               "attributes" : {
                  "COLOR_0" : 2,
                  "NORMAL" : 22,
                  "POSITION" : 32
               },
               "indices" : 12,
               "material" : 0,
               "mode" : 4
            }
         ]
      },
      {
         "name" : "mesh_m3-PolyPaper21_-328824",
         "primitives" : [
            {
               "attributes" : {
                  "COLOR_0" : 3,
                  "NORMAL" : 23,
                  "POSITION" : 33
               },
               "indices" : 13,
               "material" : 0,
               "mode" : 4
            }
         ]
      },
      {
         "name" : "mesh_m4-PolyGlass24_-328830",
         "primitives" : [
            {
               "attributes" : {
                  "COLOR_0" : 4,
                  "NORMAL" : 24,
                  "POSITION" : 34
               },
               "indices" : 14,
               "material" : 1,
               "mode" : 4
            }
         ]
      },
      {
         "name" : "mesh_m5-PolyPaper21_-328836",
         "primitives" : [
            {
               "attributes" : {
                  "COLOR_0" : 5,
                  "NORMAL" : 25,
                  "POSITION" : 35
               },
               "indices" : 15,
               "material" : 0,
               "mode" : 4
            }
         ]
      },
      {
         "name" : "mesh_m6-PolyPaper21_-328842",
         "primitives" : [
            {
               "attributes" : {
                  "COLOR_0" : 6,
                  "NORMAL" : 26,
                  "POSITION" : 36
               },
               "indices" : 16,
               "material" : 0,
               "mode" : 4
            }
         ]
      },
      {
         "name" : "mesh_m7-PolyGem25_-328848",
         "primitives" : [
            {
               "attributes" : {
                  "COLOR_0" : 7,
                  "NORMAL" : 27,
                  "POSITION" : 37
               },
               "indices" : 17,
               "material" : 2,
               "mode" : 4
            }
         ]
      },
      {
         "name" : "mesh_m8-PolyPaper21_-328854",
         "primitives" : [
            {
               "attributes" : {
                  "COLOR_0" : 8,
                  "NORMAL" : 28,
                  "POSITION" : 38
               },
               "indices" : 18,
               "material" : 0,
               "mode" : 4
            }
         ]
      },
      {
         "name" : "mesh_m9-PolyPaper22_-328860",
         "primitives" : [
            {
               "attributes" : {
                  "COLOR_0" : 9,
                  "NORMAL" : 29,
                  "POSITION" : 39
               },
               "indices" : 19,
               "material" : 0,
               "mode" : 4
            }
         ]
      }
   ],
   "nodes" : [
      {
         "mesh" : 1,
         "name" : "node_MeshObject-1127069696-PolyPaper21"
      },
      {
         "mesh" : 8,
         "name" : "node_MeshObject-1417483264-PolyPaper21"
      },
      {
         "mesh" : 0,
         "name" : "node_MeshObject-1699148800-PolyPaper15"
      },
      {
         "mesh" : 7,
         "name" : "node_MeshObject-1989562368-PolyGem25"
      },
      {
         "mesh" : 2,
         "name" : "node_MeshObject-554990592-PolyPaper21"
      },
      {
         "mesh" : 9,
         "name" : "node_MeshObject-845404160-PolyPaper22"
      },
      {
         "mesh" : 5,
         "name" : "node_MeshObject1161246720-PolyPaper21"
      },
      {
         "mesh" : 3,
         "name" : "node_MeshObject17088512-PolyPaper21"
      },
      {
         "mesh" : 6,
         "name" : "node_MeshObject1733325824-PolyPaper21"
      },
      {
         "mesh" : 4,
         "name" : "node_MeshObject589167616-PolyGlass24"
      },
      {
         "children" : [ 11 ]
      },
      {
         "children" : [ 12 ],
         "extras" : {
            "isTransformNode" : 1
         },
         "translation" : [ -0.1383605959543219, -0.9694058108924262, -0.5613479351596139 ]
      },
      {
         "children" : [ 2, 0, 4, 7, 9, 6, 8, 3, 1, 5 ],
         "translation" : [ 0.1383605959543219, 0.9694058108924262, 0.5613479351596139 ]
      },
      {
         "camera" : 0,
         "children" : [ 14 ],
         "rotation" : [
            -0.02726330837905745,
            -0.5753187944484383,
            -0.01919254145583249,
            0.817249437517757
         ],
         "translation" : [ -4.282047967502801, -2.605286274667059, 1.198164730685118 ]
      },
      {
         "extensions" : {
            "KHR_lights_punctual" : {
               "light" : 0
            }
         },
         "extras" : {
            "isHeadLight" : 1
         },
         "name" : "headLightNode",
         "translation" : [ -9.04261324043518, 4.52130662021759, 4.52130662021759 ]
      },
      {
         "extensions" : {
            "KHR_lights_punctual" : {
               "light" : 1
            }
         },
         "extras" : {
            "isKeyLight" : 1
         },
         "name" : "keyLightNode",
         "rotation" : [ -0.7505326882858236, -0.3752663441429118, 0, 0.5439447166468927 ],
         "scale" : [ 0, 0, 9.133039372839532 ],
         "translation" : [ -9.238764970238556, 15.67377375005718, -9.39402475745991 ]
      }
   ],
   "scene" : 0,
   "scenes" : [
      {
         "extensions" : {
            "GOOGLE_backgrounds" : {
               "color" : [ 0, 0, 0 ]
            },
            "GOOGLE_camera_settings" : {
               "pivot" : [ -0.1629733301346281, -2.897540590193624, -0.2775888209108954 ]
            }
         },
         "extras" : {
            "GOOGLE_camera_index" : {
               "cameraIndex" : 0,
               "nodeIndex" : 13
            },
            "GOOGLE_geometry_data" : {
               "stats" : {
                  "centroid" : [ -0.1057255973990243, -2.592304995621888, -0.2609853846203786 ],
                  "radius" : 9.04261324043518,
                  "stdev" : 2.951772493988237
               },
               "visualCenterPoint" : [ -0.1383605959543219, -0.9694058108924262, -0.5613479351596139 ]
            },
            "GOOGLE_hemi_light" : {
               "groundColor" : [ 0, 0, 0 ]
            }
         },
         "name" : "defaultScene",
         "nodes" : [ 10, 13, 15 ]
      }
   ]
}
